<?xml version="1.0" standalone="no"?>
<!DOCTYPE svg PUBLIC "-//W3C//DTD SVG 20010904//EN"
 "http://www.w3.org/TR/2001/REC-SVG-20010904/DTD/svg10.dtd">
<svg version="1.0" xmlns="http://www.w3.org/2000/svg"
 width="180.000000pt" height="180.000000pt" viewBox="0 0 180.000000 180.000000"
 preserveAspectRatio="xMidYMid meet">

<g transform="translate(0.000000,180.000000) scale(0.100000,-0.100000)"
fill="#000000" stroke="none">
<path d="M650 1600 l0 -100 -75 0 -75 0 0 -50 0 -50 -50 0 -50 0 0 -50 0 -50
-50 0 -50 0 0 -175 0 -175 -100 0 -100 0 0 275 0 275 -50 0 -50 0 0 -275 0
-275 50 0 50 0 0 -50 0 -50 100 0 100 0 0 -175 0 -175 100 0 100 0 0 -125 0
-125 -100 0 -100 0 0 -100 0 -100 100 0 100 0 0 100 0 100 125 0 125 0 0 125
0 125 150 0 150 0 0 -125 0 -125 125 0 125 0 0 -100 0 -100 100 0 100 0 0 100
0 100 -100 0 -100 0 0 125 0 125 100 0 100 0 0 175 0 175 100 0 100 0 0 50 0
50 50 0 50 0 0 275 0 275 -50 0 -50 0 0 -275 0 -275 -100 0 -100 0 0 175 0
175 -50 0 -50 0 0 50 0 50 -50 0 -50 0 0 50 0 50 -75 0 -75 0 0 100 0 100 -50
0 -50 0 0 -100 0 -100 -150 0 -150 0 0 100 0 100 -50 0 -50 0 0 -100z m150
-650 l0 -200 -100 0 -100 0 0 200 0 200 100 0 100 0 0 -200z m400 0 l0 -200
-100 0 -100 0 0 200 0 200 100 0 100 0 0 -200z"/>
</g>
</svg>
