<?xml version="1.0" standalone="no"?>
<!DOCTYPE svg PUBLIC "-//W3C//DTD SVG 20010904//EN"
 "http://www.w3.org/TR/2001/REC-SVG-20010904/DTD/svg10.dtd">
<svg version="1.0" xmlns="http://www.w3.org/2000/svg"
 width="512.000000pt" height="512.000000pt" viewBox="0 0 512.000000 512.000000"
 preserveAspectRatio="xMidYMid meet">

<g transform="translate(0.000000,512.000000) scale(0.100000,-0.100000)"
fill="#000000" stroke="none">
<path d="M1850 4550 l0 -280 -212 -2 -213 -3 -3 -142 -3 -143 -139 0 -139 0
-3 -142 -3 -143 -137 -3 -138 -3 -2 -492 -3 -492 -282 -3 -283 -2 0 -140 0
-140 282 -2 283 -3 3 -492 2 -493 278 -2 277 -3 3 -352 2 -353 355 0 355 0 2
353 3 352 425 0 425 0 3 -352 2 -353 355 0 355 0 2 353 3 352 277 3 278 2 2
493 3 492 283 3 282 2 0 140 0 140 -282 2 -283 3 -3 492 -2 492 -138 3 -137 3
-3 143 -3 142 -139 0 -139 0 -3 143 -3 142 -212 3 -213 2 0 280 0 280 -140 0
-140 0 0 -280 0 -280 -430 0 -430 0 0 280 0 280 -140 0 -140 0 0 -280z m428
-1848 l2 -572 -287 2 -288 3 -3 550 c-1 303 0 560 3 573 l5 22 283 -2 282 -3
3 -573z m1137 556 c3 -13 4 -270 3 -573 l-3 -550 -287 -3 -288 -2 0 568 c0
313 3 572 7 575 3 4 131 7 284 7 l279 0 5 -22z"/>
<path d="M0 3490 l0 -780 140 0 140 0 0 780 0 780 -140 0 -140 0 0 -780z"/>
<path d="M4840 3490 l0 -780 140 0 140 0 0 780 0 780 -140 0 -140 0 0 -780z"/>
<path d="M860 430 l0 -280 280 0 280 0 0 280 0 280 -280 0 -280 0 0 -280z"/>
<path d="M3700 430 l0 -280 280 0 280 0 0 280 0 280 -280 0 -280 0 0 -280z"/>
</g>
</svg>
